<svg width="30" height="30" viewBox="0 0 30 30" fill="none" xmlns="http://www.w3.org/2000/svg">
<path d="M28.8987 1.10273C28.4506 0.64914 27.893 0.3188 27.2799 0.143627C26.6668 -0.031547 26.0189 -0.0456325 25.3988 0.102731L5.39875 4.31523C4.24697 4.47319 3.16216 4.94958 2.2665 5.69075C1.37084 6.43192 0.699889 7.40843 0.329216 8.51031C-0.0414565 9.6122 -0.0971309 10.7957 0.168463 11.9275C0.434056 13.0593 1.01037 14.0945 1.8325 14.9165L3.98 17.0627C4.09623 17.1789 4.1884 17.3169 4.25125 17.4688C4.3141 17.6206 4.34638 17.7834 4.34625 17.9477V21.9077C4.34901 22.4645 4.47718 23.0135 4.72125 23.514L4.71125 23.5227L4.74375 23.5552C5.11001 24.2916 5.70823 24.8872 6.44625 25.2502L6.47875 25.2827L6.4875 25.2727C6.98795 25.5168 7.53696 25.645 8.09375 25.6477H12.0537C12.3851 25.6475 12.7029 25.7788 12.9375 26.0127L15.0837 28.159C15.6594 28.741 16.3446 29.2034 17.0997 29.5194C17.8549 29.8354 18.6651 29.9988 19.4837 30.0002C20.1659 29.9994 20.8435 29.8879 21.49 29.6702C22.5818 29.3117 23.5517 28.6552 24.2903 27.7749C25.0289 26.8945 25.5067 25.8252 25.67 24.6877L29.8887 4.64398C30.0448 4.01853 30.0356 3.36326 29.8621 2.74243C29.6885 2.12161 29.3565 1.55657 28.8987 1.10273ZM5.75 15.2977L3.60125 13.1515C3.1009 12.6632 2.75021 12.0423 2.59036 11.3617C2.4305 10.6811 2.4681 9.96897 2.69875 9.30898C2.92237 8.63189 3.33575 8.03326 3.88974 7.58431C4.44373 7.13536 5.11501 6.85496 5.82375 6.77648L25.625 2.60773L6.84375 21.3915V17.9477C6.84564 17.4557 6.74995 16.9681 6.56221 16.5132C6.37447 16.0584 6.09841 15.6452 5.75 15.2977ZM23.2137 24.2602C23.1178 24.9507 22.8313 25.6007 22.3864 26.1373C21.9415 26.6739 21.3558 27.0759 20.6952 27.2982C20.0345 27.5204 19.3249 27.5541 18.6462 27.3955C17.9674 27.2369 17.3463 26.8923 16.8525 26.4002L14.7025 24.2502C14.3555 23.9013 13.9427 23.6246 13.488 23.4362C13.0334 23.2479 12.5459 23.1515 12.0537 23.1527H8.61L27.3938 4.37523L23.2137 24.2602Z" fill="#3BAD84"/>
</svg>
