<svg xmlns="http://www.w3.org/2000/svg" width="150" height="150"><path style="stroke:none;fill-rule:nonzero;fill:#fff;fill-opacity:1" d="M133.133 17.96c-1.465.063-2.887.47-4.168.985-1.27.508-8.578 3.63-19.371 8.242C98.8 31.802 84.77 37.813 70.864 43.77c-27.817 11.917-55.15 23.64-55.15 23.64l.2-.074s-1.648.55-3.324 1.715c-.836.586-1.735 1.336-2.473 2.433-.734 1.098-1.273 2.653-1.07 4.293.71 5.778 6.695 7.414 6.695 7.414l.028.012 26.707 9.14c.68 2.274 8.097 27.036 9.73 32.282.902 2.898 1.746 4.57 2.625 5.71.441.571.902 1.013 1.414 1.337.2.129.414.226.625.312.004 0 .008-.004.012 0 .027.008.05.012.078.024l-.07-.02c.047.02.093.055.144.07.094.036.153.032.278.06 3.058 1.066 5.59-.915 5.59-.915l.105-.082 16.406-15.215 26.625 20.758.332.152c4.66 2.07 8.875.914 11.211-.984 2.332-1.898 3.25-4.348 3.25-4.348l.102-.257 19.562-101.97c.5-2.284.57-4.253.102-6.034-.473-1.785-1.621-3.332-3.059-4.192-1.441-.86-2.945-1.136-4.406-1.07Zm.156 6.099c.594-.028 1.035.039 1.172.12.137.087.2.075.336.579.133.5.203 1.558-.16 3.215l-.012.035-19.453 101.379c-.047.101-.453 1.039-1.375 1.793-.945.77-1.996 1.367-4.781.199l-29.118-22.707-.82-.645-.016.02-8.707-6.535 48.93-57.567a2.999 2.999 0 0 0-3.95-4.441L44.532 86.707l-26.746-9.16S15.13 76.07 15 75.039c-.008-.055-.04-.004.102-.21.136-.204.484-.552.918-.856A9.5 9.5 0 0 1 17.883 73l.101-.035.098-.04S45.418 61.2 73.23 49.282c13.907-5.957 27.934-11.96 38.727-16.574 10.785-4.613 18.582-7.934 19.242-8.2.75-.3 1.496-.421 2.09-.448Zm-32.45 32.32-37.105 43.656-.02.02a3.51 3.51 0 0 0-.328.469 2.97 2.97 0 0 0-.39 1.152.025.025 0 0 0 0 .023l-4.836 21.739c-.082-.235-.137-.32-.222-.598v-.004c-1.536-4.934-8.536-28.29-9.504-31.516ZM67.923 107.19l6.668 5.004-9.797 9.082Zm0 0"/></svg>