<svg width="30" height="26" viewBox="0 0 30 26" fill="none" xmlns="http://www.w3.org/2000/svg">
<path d="M26.9287 6.87994C26.9462 7.14369 26.9462 7.40869 26.9462 7.67494C26.9462 15.8087 20.7537 25.1874 9.43375 25.1874V25.1824C6.09 25.1874 2.815 24.2299 0 22.4237C0.48625 22.4824 0.975 22.5112 1.465 22.5124C4.2375 22.5149 6.93 21.5849 9.10875 19.8724C6.475 19.8224 4.165 18.1049 3.35875 15.5974C4.28125 15.7749 5.23125 15.7387 6.1375 15.4924C3.265 14.9124 1.2 12.3887 1.2 9.45869C1.2 9.43244 1.2 9.40619 1.2 9.38119C2.05625 9.85869 3.01375 10.1224 3.99375 10.1512C1.28875 8.34494 0.45375 4.74744 2.0875 1.93494C5.2125 5.77994 9.82375 8.11744 14.7725 8.36619C14.2762 6.22869 14.955 3.98869 16.5525 2.48494C19.0312 0.153688 22.93 0.273688 25.2612 2.75244C26.64 2.48119 27.9613 1.97494 29.17 1.25869C28.71 2.68369 27.7487 3.89369 26.4637 4.66369C27.685 4.51744 28.8762 4.19119 30 3.69369C29.1737 4.92994 28.1337 6.00869 26.9287 6.87994Z" fill="#3BAD84"/>
</svg>
